<svg id="_2_User" data-name="2 User" xmlns="http://www.w3.org/2000/svg" width="30.175" height="27.158" viewBox="0 0 30.175 27.158">
  <path id="Fill_1" data-name="Fill 1" d="M11.088,0C5.108,0,0,.924,0,4.616S5.075,9.267,11.088,9.267c5.98,0,11.088-.924,11.088-4.616S17.1,0,11.088,0" transform="translate(0 17.89)" fill="#fff"/>
  <path id="Fill_3" data-name="Fill 3" d="M7.337,14.371a7.236,7.236,0,0,0,7.337-7.185A7.236,7.236,0,0,0,7.337,0,7.237,7.237,0,0,0,0,7.185a7.237,7.237,0,0,0,7.337,7.185" transform="translate(3.751)" fill="#fff" opacity="0.7"/>
  <path id="Fill_5" data-name="Fill 5" d="M1.908,6.115a9.607,9.607,0,0,1-1.715,5.5.267.267,0,0,0,.185.415,5.986,5.986,0,0,0,.844.078A6.1,6.1,0,0,0,7.366,7.658,6.1,6.1,0,0,0,1.4,0,6.275,6.275,0,0,0,.162.123.223.223,0,0,0,.018.207.168.168,0,0,0,.046.393,9.677,9.677,0,0,1,1.908,6.115" transform="translate(19.476 1.2)" fill="#fff" opacity="0.7"/>
  <path id="Fill_7" data-name="Fill 7" d="M9.426,2.7C8.9,1.6,7.636.854,5.711.486A27.691,27.691,0,0,0,.057,0,.064.064,0,0,0,0,.046a.081.081,0,0,0,.05.082C1.108.64,5.193,2.867,4.679,7.562a.312.312,0,0,0,.353.35c1.005-.14,3.592-.685,4.393-2.38a3.178,3.178,0,0,0,0-2.834" transform="translate(20.416 15.662)" fill="#fff"/>
</svg>
