<svg id="Challenge" xmlns="http://www.w3.org/2000/svg" width="29.474" height="29.474" viewBox="0 0 29.474 29.474">
  <g id="Activity" transform="translate(0)">
    <path id="Path_34168" d="M18.66,26.526H7.878a7.98,7.98,0,0,1-5.8-2.08A7.961,7.961,0,0,1,0,18.659V7.893a8,8,0,0,1,2.078-5.8A7.958,7.958,0,0,1,7.878,0H19.619a5.761,5.761,0,0,0-.1,1.088,5.937,5.937,0,0,0,5.935,5.926,6.1,6.1,0,0,0,1.076-.1V18.659a7.966,7.966,0,0,1-2.077,5.788A7.96,7.96,0,0,1,18.66,26.526ZM10.643,10.433a1.108,1.108,0,0,0-.145.01,1.091,1.091,0,0,0-.727.427L5.417,16.485a1.074,1.074,0,0,0-.233.674,1.089,1.089,0,0,0,2.009.634l3.641-4.711,4.043,3.171a1.1,1.1,0,0,0,.684.241,1.092,1.092,0,0,0,.872-.436l4.211-5.434V10.6a1.1,1.1,0,0,0-.207-1.54,1.076,1.076,0,0,0-1.529.22l-3.551,4.568-4.043-3.183A1.093,1.093,0,0,0,10.643,10.433Z" transform="translate(0 2.947)" fill="#fff"/>
    <circle id="Ellipse_742" cx="3.684" cy="3.684" r="3.684" transform="translate(22.105)" fill="#fff" opacity="0.7"/>
  </g>
</svg>
