<svg id="Full_Size_Icon" data-name="Full Size Icon" xmlns="http://www.w3.org/2000/svg" width="24" height="24" viewBox="0 0 24 24">
  <rect id="Rectangle_7112" data-name="Rectangle 7112" width="24" height="24" fill="none"/>
  <path id="Fill_4" data-name="Fill 4" d="M.226,4.482,4.47.219a.871.871,0,0,1,1.2-.006L9.874,4.438a.85.85,0,0,1-1.2,1.2L5.9,2.858l-.033,7.163a.854.854,0,0,1-.849.849.836.836,0,0,1-.842-.842l.033-7.163L1.418,5.67a.852.852,0,0,1-.6.251.837.837,0,0,1-.6-.243.847.847,0,0,1,0-1.2" transform="translate(7.171 23.967) rotate(-135)" fill="#fff"/>
  <path id="Fill_4-2" data-name="Fill 4" d="M.226,4.482,4.47.219a.871.871,0,0,1,1.2-.006L9.874,4.438a.85.85,0,0,1-1.2,1.2L5.9,2.858l-.033,7.163a.854.854,0,0,1-.849.849.836.836,0,0,1-.842-.842l.033-7.163L1.418,5.67a.852.852,0,0,1-.6.251.837.837,0,0,1-.6-.243.847.847,0,0,1,0-1.2" transform="translate(16.764 0.033) rotate(45)" fill="#fff"/>
</svg>
