<svg id="Iconly_Bold_Camera" data-name="Iconly/Bold/Camera" xmlns="http://www.w3.org/2000/svg" width="18" height="17" viewBox="0 0 18 17">
  <g id="Camera" transform="translate(0.466 -0.066)">
    <path id="Camera-2" data-name="Camera" d="M14.076,17H3.924A4.026,4.026,0,0,1,0,12.887v-5.6A4.026,4.026,0,0,1,3.924,3.17.178.178,0,0,0,4.1,3.057l.053-.113.075-.165c.235-.52.5-1.108.663-1.448A2.185,2.185,0,0,1,6.876,0h4.239a2.191,2.191,0,0,1,2,1.33c.142.3.357.774.565,1.236l.128.283.091.207a.2.2,0,0,0,.18.113A4.026,4.026,0,0,1,18,7.283v5.6A4.026,4.026,0,0,1,14.076,17ZM9,6.047A3.448,3.448,0,0,0,6.489,7.142,3.747,3.747,0,0,0,5.463,9.755,3.813,3.813,0,0,0,6.5,12.378,3.467,3.467,0,0,0,9,13.462a3.425,3.425,0,0,0,2.493-1.085A3.828,3.828,0,0,0,11.5,7.132,3.433,3.433,0,0,0,9,6.047Zm5.049-.226a.855.855,0,1,0,.82.859A.836.836,0,0,0,14.049,5.821ZM9,12.047a2.123,2.123,0,0,1-1.548-.67,2.334,2.334,0,0,1-.639-1.623V9.745a2.264,2.264,0,0,1,.63-1.6,2.124,2.124,0,0,1,3.1-.009,2.337,2.337,0,0,1,.639,1.623A2.256,2.256,0,0,1,9,12.047Z" transform="translate(-0.466 0.066)" fill="#fff"/>
  </g>
</svg>
