<svg id="Insta_Icon" data-name="Insta Icon" xmlns="http://www.w3.org/2000/svg" width="19.636" height="19.636" viewBox="0 0 19.636 19.636">
  <path id="Path_10499" data-name="Path 10499" d="M10.141,1.8c2.618,0,2.945,0,4.009.082,2.7.082,3.927,1.391,4.009,4.009.082,1.064.082,1.309.082,3.927s0,2.945-.082,3.927c-.082,2.618-1.391,3.927-4.009,4.009-1.064.082-1.309.082-4.009.082-2.618,0-2.945,0-3.927-.082-2.7-.082-3.927-1.391-4.009-4.009-.082-1.064-.082-1.309-.082-3.927s0-2.945.082-3.927C2.287,3.273,3.6,1.964,6.214,1.882,7.2,1.8,7.523,1.8,10.141,1.8Zm0-1.8c-2.7,0-3.027,0-4.009.082C2.532.245.568,2.209.4,5.809.323,6.791.323,7.118.323,9.818s0,3.027.082,4.009c.164,3.6,2.127,5.564,5.727,5.727.982.082,1.309.082,4.009.082s3.027,0,4.009-.082c3.6-.164,5.564-2.127,5.727-5.727.082-.982.082-1.309.082-4.009s0-3.027-.082-4.009C19.714,2.209,17.75.245,14.15.082,13.168,0,12.841,0,10.141,0Zm0,4.745a5.073,5.073,0,1,0,5.073,5.073A5.1,5.1,0,0,0,10.141,4.745Zm0,8.345a3.273,3.273,0,1,1,3.273-3.273A3.282,3.282,0,0,1,10.141,13.091Zm5.236-9.654a1.118,1.118,0,0,0-1.145,1.145,1.145,1.145,0,0,0,2.291,0A1.118,1.118,0,0,0,15.377,3.436Z" transform="translate(-0.323 0)" fill="#24272c"/>
</svg>
