<svg xmlns="http://www.w3.org/2000/svg" width="29.474" height="22.106" viewBox="0 0 29.474 22.106">
  <g id="Live_Session" data-name="Live Session" transform="translate(0 0)">
    <g id="Video" transform="translate(0 0)">
      <path id="Fill_1" data-name="Fill 1" d="M5.516.319A2.038,2.038,0,0,0,3.493.224l-2.184,1.1A2.385,2.385,0,0,0,0,3.472v8.6a2.39,2.39,0,0,0,1.309,2.147l2.183,1.1a2.021,2.021,0,0,0,.93.226,2.061,2.061,0,0,0,1.095-.319,2.105,2.105,0,0,0,.986-1.8V2.115a2.11,2.11,0,0,0-.986-1.8" transform="translate(22.972 3.281)" fill="#fff" opacity="0.7"/>
      <path id="Fill_3" data-name="Fill 3" d="M14.6,22.105H6.061A5.763,5.763,0,0,1,0,16.121V5.985A5.762,5.762,0,0,1,6.061,0H14.6a5.762,5.762,0,0,1,6.061,5.985V16.121A5.763,5.763,0,0,1,14.6,22.105" transform="translate(0 0)" fill="#fff"/>
    </g>
  </g>
</svg>
