<svg xmlns="http://www.w3.org/2000/svg" width="18" height="21.001" viewBox="0 0 18 21.001">
  <g id="Location_icon" data-name="Location icon" transform="translate(0 0.001)">
    <g id="Location">
      <path id="Location-2" data-name="Location" d="M9,21a1.446,1.446,0,0,1-.777-.26,22.705,22.705,0,0,1-5.866-5.4A10.847,10.847,0,0,1,0,8.734,8.542,8.542,0,0,1,2.65,2.556,9.072,9.072,0,0,1,8.993,0,8.884,8.884,0,0,1,18,8.734a10.853,10.853,0,0,1-2.361,6.608,23.135,23.135,0,0,1-5.867,5.4A1.4,1.4,0,0,1,9,21ZM8.993,6.066a2.955,2.955,0,0,0-2.964,2.94,2.836,2.836,0,0,0,.87,2.052,2.989,2.989,0,0,0,2.094.839,2.939,2.939,0,0,0,2.978-2.891,2.9,2.9,0,0,0-.876-2.072A2.973,2.973,0,0,0,8.993,6.066Z" transform="translate(0 -0.001)" fill="#24272c"/>
    </g>
  </g>
</svg>
