<svg id="Personalised_plans" data-name="Personalised plans" xmlns="http://www.w3.org/2000/svg" width="42" height="41" viewBox="0 0 42 41">
  <g id="Calendar" transform="translate(5.124 3.416)">
    <path id="Fill_1" data-name="Fill 1" d="M8.757,21.765C3.408,21.765,0,18.4,0,13V0H30.744V13.108c0,5.36-3.374,8.657-8.774,8.657Z" transform="translate(0 12.395)" fill="#fff"/>
    <path id="Fill_4" data-name="Fill 4" d="M0,9.85A27.08,27.08,0,0,1,.265,6.217C1.075,2.615,3.825.326,7.757,0h15.22c3.9.343,6.682,2.647,7.492,6.217a27.144,27.144,0,0,1,.263,3.633Z" transform="translate(0.006 2.545)" fill="#fff" opacity="0.4"/>
    <path id="Fill_6" data-name="Fill 6" d="M1.3,7.84A1.276,1.276,0,0,0,2.6,6.525V1.317A1.277,1.277,0,0,0,1.3,0,1.277,1.277,0,0,0,0,1.317V6.525A1.276,1.276,0,0,0,1.3,7.84" transform="translate(7.761 0)" fill="#fff"/>
    <path id="Fill_9" data-name="Fill 9" d="M1.3,7.84A1.286,1.286,0,0,0,2.6,6.525V1.317A1.287,1.287,0,0,0,1.3,0,1.277,1.277,0,0,0,0,1.317V6.525A1.276,1.276,0,0,0,1.3,7.84" transform="translate(20.384 0)" fill="#fff"/>
  </g>
</svg>
