<svg id="Social_Youtube" data-name="Social/Youtube" xmlns="http://www.w3.org/2000/svg" width="29.143" height="21.827" viewBox="0 0 29.143 21.827">
  <path id="Path_10498" data-name="Path 10498" d="M176.418,299.215h.015a4.126,4.126,0,0,1,1.776.429,1.548,1.548,0,0,1,.636.786,8.428,8.428,0,0,1,.531,2.493c.119,1.2.157,2.69.157,4.556s-.038,3.362-.157,4.574a8.621,8.621,0,0,1-.535,2.527,1.5,1.5,0,0,1-.62.777,3.829,3.829,0,0,1-1.726.382h-.01c-4.273.237-13.866.238-18.161,0a4.088,4.088,0,0,1-1.751-.427,1.547,1.547,0,0,1-.636-.787,8.423,8.423,0,0,1-.531-2.492c-.119-1.2-.157-2.69-.157-4.556s.038-3.354.157-4.556a8.428,8.428,0,0,1,.531-2.493,1.548,1.548,0,0,1,.636-.786,4.126,4.126,0,0,1,1.776-.429h.015A153.956,153.956,0,0,1,176.418,299.215Zm-23.6,8.265c0,7.528.607,10.321,5.343,10.685,4.372.243,14.086.243,18.457,0,4.736-.243,5.343-3.157,5.343-10.685s-.607-10.321-5.343-10.686a156.116,156.116,0,0,0-18.457,0C153.427,297.159,152.82,299.952,152.82,307.481Zm12.686,3.978a1.214,1.214,0,0,1-1.757-1.086v-5.785a1.214,1.214,0,0,1,1.757-1.086l5.785,2.892a1.214,1.214,0,0,1,0,2.172Z" transform="translate(-152.82 -296.522)" fill="rgba(0,0,0,0.87)" fill-rule="evenodd"/>
</svg>
