<svg id="Social_Insta" data-name="Social/Insta" xmlns="http://www.w3.org/2000/svg" width="26.714" height="26.714" viewBox="0 0 26.714 26.714">
  <path id="Path_10499" data-name="Path 10499" d="M13.68,2.449c3.562,0,4.007,0,5.454.111,3.673.111,5.343,1.892,5.454,5.454.111,1.447.111,1.781.111,5.343s0,4.007-.111,5.343c-.111,3.562-1.892,5.343-5.454,5.454-1.447.111-1.781.111-5.454.111-3.562,0-4.007,0-5.343-.111-3.673-.111-5.343-1.892-5.454-5.454-.111-1.447-.111-1.781-.111-5.343s0-4.007.111-5.343C2.994,4.452,4.775,2.671,8.337,2.56,9.673,2.449,10.118,2.449,13.68,2.449ZM13.68,0C10.007,0,9.562,0,8.226.111,3.328.334.657,3.005.434,7.9.323,9.239.323,9.684.323,13.357s0,4.118.111,5.454c.223,4.9,2.894,7.569,7.792,7.792,1.336.111,1.781.111,5.454.111s4.118,0,5.454-.111c4.9-.223,7.569-2.894,7.792-7.792.111-1.336.111-1.781.111-5.454s0-4.118-.111-5.454C26.7,3.005,24.032.334,19.134.111,17.8,0,17.353,0,13.68,0Zm0,6.456a6.9,6.9,0,1,0,6.9,6.9A6.936,6.936,0,0,0,13.68,6.456Zm0,11.354a4.452,4.452,0,1,1,4.452-4.452A4.465,4.465,0,0,1,13.68,17.81ZM20.8,4.675a1.522,1.522,0,0,0-1.558,1.558,1.558,1.558,0,0,0,3.117,0A1.522,1.522,0,0,0,20.8,4.675Z" transform="translate(-0.323)" fill="rgba(0,0,0,0.87)"/>
</svg>
