<svg id="Volume_Down_Icon" data-name="Volume Down Icon" xmlns="http://www.w3.org/2000/svg" width="24" height="24" viewBox="0 0 24 24">
  <g id="Volume_Down" data-name="Volume Down" transform="translate(3 3)">
    <path id="Volume_Down-2" data-name="Volume Down" d="M9.689,18A2.694,2.694,0,0,1,8.1,17.323l-3.531-2.94H2.755A2.646,2.646,0,0,1,.145,11.8a27.888,27.888,0,0,1,0-5.677,2.7,2.7,0,0,1,2.61-2.51H4.568L8.032.719A3.022,3.022,0,0,1,9.769,0a2.548,2.548,0,0,1,2.37,1.956,10.116,10.116,0,0,1,.232,1.495l.048.442a96.7,96.7,0,0,1,0,10.216l-.048.458a9.034,9.034,0,0,1-.224,1.453A2.542,2.542,0,0,1,9.793,18Zm5.459-3.257a.955.955,0,0,1-.23-1.308A7.955,7.955,0,0,0,16.163,9a7.952,7.952,0,0,0-1.246-4.434.955.955,0,0,1,.23-1.308.91.91,0,0,1,1.278.237A9.869,9.869,0,0,1,18,9a9.869,9.869,0,0,1-1.574,5.505.914.914,0,0,1-.754.4A.9.9,0,0,1,15.148,14.742Z" fill="#fff"/>
  </g>
</svg>
