<svg id="Youtube_Icon" data-name="Youtube Icon" xmlns="http://www.w3.org/2000/svg" width="21.421" height="16.044" viewBox="0 0 21.421 16.044">
  <path id="Path_10498" data-name="Path 10498" d="M170.166,298.5h.011a3.033,3.033,0,0,1,1.306.316,1.138,1.138,0,0,1,.467.578,6.2,6.2,0,0,1,.391,1.832c.087.884.115,1.977.115,3.349s-.028,2.471-.115,3.362a6.337,6.337,0,0,1-.393,1.858,1.1,1.1,0,0,1-.456.571,2.815,2.815,0,0,1-1.269.281h-.008c-3.141.174-10.192.175-13.349,0a3.005,3.005,0,0,1-1.287-.314,1.137,1.137,0,0,1-.467-.578,6.191,6.191,0,0,1-.391-1.832c-.087-.884-.115-1.977-.115-3.349s.028-2.465.115-3.349a6.2,6.2,0,0,1,.391-1.832,1.138,1.138,0,0,1,.467-.578,3.033,3.033,0,0,1,1.306-.316h.011A113.175,113.175,0,0,1,170.166,298.5Zm-17.346,6.075c0,5.534.446,7.587,3.927,7.854,3.213.179,10.354.179,13.567,0,3.481-.178,3.927-2.321,3.927-7.854s-.446-7.587-3.927-7.855a114.759,114.759,0,0,0-13.567,0C153.266,296.99,152.82,299.043,152.82,304.577Zm9.325,2.924a.893.893,0,0,1-1.292-.8v-4.252a.893.893,0,0,1,1.292-.8l4.252,2.126a.893.893,0,0,1,0,1.6Z" transform="translate(-152.82 -296.522)" fill="#24272c" fill-rule="evenodd"/>
</svg>
