<svg id="Icon_Challenge" data-name="Icon/Challenge" xmlns="http://www.w3.org/2000/svg" width="44.333" height="44.333" viewBox="0 0 44.333 44.333">
  <g id="Activity" transform="translate(0)">
    <path id="Path_34168" d="M28.067,39.9H11.85c-3.66,0-6.677-1.082-8.725-3.129S0,31.716,0,28.065V11.872C0,8.219,1.081,5.2,3.126,3.148S8.193,0,11.85,0H29.51a8.665,8.665,0,0,0-.156,1.636,8.931,8.931,0,0,0,8.927,8.914,9.18,9.18,0,0,0,1.618-.156V28.065c0,3.65-1.08,6.66-3.123,8.705S31.72,39.9,28.067,39.9ZM16.008,15.692a1.667,1.667,0,0,0-.218.014,1.642,1.642,0,0,0-1.093.642L8.147,24.8A1.615,1.615,0,0,0,7.8,25.809a1.639,1.639,0,0,0,3.022.954l5.476-7.086,6.081,4.77a1.655,1.655,0,0,0,1.029.362,1.642,1.642,0,0,0,1.311-.655L31.05,15.98v-.04a1.662,1.662,0,0,0-.311-2.316,1.618,1.618,0,0,0-2.3.331L23.1,20.825l-6.081-4.788A1.644,1.644,0,0,0,16.008,15.692Z" transform="translate(0 4.433)" fill="#fff"/>
    <circle id="Ellipse_742" cx="5.542" cy="5.542" r="5.542" transform="translate(33.25)" fill="#fff" opacity="0.7"/>
  </g>
</svg>
