<svg id="Icon_1on_1_workshop" data-name="Icon/ 1on 1 workshop" xmlns="http://www.w3.org/2000/svg" width="45.388" height="40.849" viewBox="0 0 45.388 40.849">
  <g id="_2_User" data-name="2 User" transform="translate(0 0)">
    <path id="Fill_1" data-name="Fill 1" d="M16.678,0C7.683,0,0,1.39,0,6.943s7.634,7,16.678,7c9,0,16.678-1.39,16.678-6.943S25.723,0,16.678,0" transform="translate(0 26.91)" fill="#fff"/>
    <path id="Fill_3" data-name="Fill 3" d="M11.036,21.616A10.884,10.884,0,0,0,22.072,10.808,10.884,10.884,0,0,0,11.036,0,10.886,10.886,0,0,0,0,10.808,10.886,10.886,0,0,0,11.036,21.616" transform="translate(5.642)" fill="#fff" opacity="0.7"/>
    <path id="Fill_5" data-name="Fill 5" d="M2.87,9.2A14.451,14.451,0,0,1,.29,17.473a.4.4,0,0,0,.278.624,9,9,0,0,0,1.27.117,9.18,9.18,0,0,0,9.242-6.7A9.179,9.179,0,0,0,2.1,0,9.438,9.438,0,0,0,.243.185.336.336,0,0,0,.028.311.253.253,0,0,0,.07.591,14.555,14.555,0,0,1,2.87,9.2" transform="translate(29.295 1.805)" fill="#fff" opacity="0.7"/>
    <path id="Fill_7" data-name="Fill 7" d="M14.177,4.06C13.389,2.413,11.486,1.285,8.59.73A41.651,41.651,0,0,0,.086.006.1.1,0,0,0,0,.069.122.122,0,0,0,.077.193c1.59.77,7.734,4.119,6.961,11.182a.47.47,0,0,0,.531.526c1.512-.211,5.4-1.031,6.608-3.579a4.781,4.781,0,0,0,0-4.262" transform="translate(30.709 23.557)" fill="#fff"/>
  </g>
</svg>
