<svg xmlns="http://www.w3.org/2000/svg" width="44.333" height="33.25" viewBox="0 0 44.333 33.25">
  <g id="Icon_Live_Session" data-name="Icon/ Live Session" transform="translate(0 0)">
    <g id="Video" transform="translate(0 0)">
      <path id="Fill_1" data-name="Fill 1" d="M8.3.479A3.065,3.065,0,0,0,5.253.337L1.968,2A3.587,3.587,0,0,0,0,5.223V18.154a3.6,3.6,0,0,0,1.968,3.229l3.283,1.656a3.04,3.04,0,0,0,1.4.34A3.1,3.1,0,0,0,8.3,22.9,3.167,3.167,0,0,0,9.78,20.2V3.182A3.173,3.173,0,0,0,8.3.479" transform="translate(34.553 4.935)" fill="#fff" opacity="0.7"/>
      <path id="Fill_3" data-name="Fill 3" d="M21.956,33.25H9.117c-5.369,0-9.117-3.7-9.117-9V9C0,3.7,3.748,0,9.117,0H21.956c5.369,0,9.117,3.7,9.117,9V24.248c0,5.3-3.748,9-9.117,9" transform="translate(0 0)" fill="#fff"/>
    </g>
  </g>
</svg>
