<svg xmlns="http://www.w3.org/2000/svg" xmlns:xlink="http://www.w3.org/1999/xlink" width="273.173" height="218.708" viewBox="0 0 273.173 218.708">
  <defs>
    <linearGradient id="linear-gradient" x1="0.5" x2="0.5" y2="1" gradientUnits="objectBoundingBox">
      <stop offset="0" stop-color="#fc6767"/>
      <stop offset="1" stop-color="#ec008c"/>
    </linearGradient>
  </defs>
  <g id="Payment_Sucessful_Illustration" data-name="Payment Sucessful Illustration" transform="translate(2854.307 -4514.994)">
    <path id="Path_10637" data-name="Path 10637" d="M473.633,78.267A4.633,4.633,0,1,0,469,73.633,4.633,4.633,0,0,0,473.633,78.267Z" transform="translate(-3091.267 4604.105)" fill="#f24162" opacity="0.811"/>
    <path id="Path_10641" data-name="Path 10641" d="M522.6,210.2a1.247,1.247,0,0,0-1.194,0l-4.1,2.241a1.245,1.245,0,0,1-1.825-1.294l.806-4.887a1.241,1.241,0,0,0-.342-1.076l-3.45-3.5a1.244,1.244,0,0,1,.7-2.1l4.684-.708a1.243,1.243,0,0,0,.938-.7l2.06-4.341a1.245,1.245,0,0,1,2.248,0l2.06,4.341a1.243,1.243,0,0,0,.938.7l4.684.708a1.244,1.244,0,0,1,.7,2.1l-3.45,3.5a1.241,1.241,0,0,0-.342,1.076l.806,4.887a1.245,1.245,0,0,1-1.825,1.294Z" transform="translate(-3113 4426.227)" fill="#fc6767" opacity="0.811"/>
    <g id="Group_16850" data-name="Group 16850" transform="translate(-2799.076 4553.279)">
      <path id="Path_10613" data-name="Path 10613" d="M417,240c44.183,0,80-36.489,80-81.5S461.183,77,417,77s-80,36.489-80,81.5S372.817,240,417,240Z" transform="translate(-337 -77)" fill-rule="evenodd" fill="url(#linear-gradient)"/>
      <path id="Path_10616" data-name="Path 10616" d="M384.812,155.464a3.359,3.359,0,0,0-4.819,0,3.51,3.51,0,0,0,0,4.893L404.1,184.982a3.361,3.361,0,0,0,4.819,0l46.086-47.071a3.51,3.51,0,0,0,0-4.893,3.361,3.361,0,0,0-4.819,0l-43.676,44.61Z" transform="translate(-337 -77)" fill="#fff" stroke="#fff" stroke-width="1.244"/>
    </g>
    <path id="Path_10638" data-name="Path 10638" d="M344.86,252a6,6,0,1,0-5.86-6A5.931,5.931,0,0,0,344.86,252Z" transform="translate(-3139.481 4458.123)" fill="#f24162" opacity="0.811"/>
    <path id="Path_10639" data-name="Path 10639" d="M551,132a9,9,0,1,0-9-9A9,9,0,0,0,551,132Z" transform="translate(-3236.123 4410)" fill="#fc6767" opacity="0.811"/>
    <path id="Path_10640" data-name="Path 10640" d="M548.351,126.7A6.351,6.351,0,1,0,542,120.351,6.35,6.35,0,0,0,548.351,126.7Z" transform="translate(-3214.017 4607)" fill="#fc6767" opacity="0.811"/>
    <path id="Path_10642" data-name="Path 10642" d="M335.5,78a6.019,6.019,0,1,0-6.5-6A6.265,6.265,0,0,0,335.5,78Z" transform="translate(-3141.076 4499)" fill="#f24162" opacity="0.811"/>
    <path id="Path_10643" data-name="Path 10643" d="M332.25,72A3.01,3.01,0,1,0,329,69,3.132,3.132,0,0,0,332.25,72Z" transform="translate(-3105.005 4641.152)" fill="#fc6767" opacity="0.811"/>
    <path id="Path_10644" data-name="Path 10644" d="M282.078,169.467a1.243,1.243,0,0,0-1.156,0l-6.823,3.581a1.245,1.245,0,0,1-1.8-1.312l1.3-7.579a1.241,1.241,0,0,0-.358-1.1l-5.514-5.366a1.244,1.244,0,0,1,.689-2.123l7.624-1.106a1.243,1.243,0,0,0,.936-.68l3.412-6.9a1.243,1.243,0,0,1,2.23,0l3.411,6.9a1.246,1.246,0,0,0,.937.68l7.624,1.106a1.244,1.244,0,0,1,.689,2.123l-5.514,5.366a1.245,1.245,0,0,0-.359,1.1l1.3,7.579a1.244,1.244,0,0,1-1.8,1.312Z" transform="translate(-3121.653 4469.396)" fill="#f24162" opacity="0.811"/>
    <path id="Path_10645" data-name="Path 10645" d="M277.168,161.709a.829.829,0,0,0-.771,0l-4.549,2.388a.83.83,0,0,1-1.2-.875l.868-5.053a.828.828,0,0,0-.239-.735l-3.676-3.578a.829.829,0,0,1,.459-1.415l5.083-.737a.829.829,0,0,0,.624-.453l2.275-4.6a.829.829,0,0,1,1.487,0l2.274,4.6a.831.831,0,0,0,.625.453l5.083.737a.83.83,0,0,1,.459,1.415l-3.676,3.578a.83.83,0,0,0-.239.735l.868,5.053a.829.829,0,0,1-1.2.875Z" transform="translate(-3030.22 4368.807)" fill="#fc6767" opacity="0.811"/>
  </g>
</svg>
